# xmcd CD database file
#
# Track frame offsets:
#	150
#	39793
#	97862
#	127864
#	187149
#	214900
#
# Disc length: 3602 seconds
#
# Revision: 4
# Processed by: cddbd v1.5.2PL0 Copyright (c) Steve Scherf et al.
# Submitted via: CDex 1.50
#
DISCID=470e1006
DTITLE=Esbjörn Svensson Trio - e.s.t. live in gothenburg CD02
DYEAR=2019
DGENRE=Jazz
TTITLE0=Providence
TTITLE1=Good Morning Susie Soho
TTITLE2=The Chapel
TTITLE3=Bowling
TTITLE4=The Second Page
TTITLE5=Dodge The Dodo
EXTD=YEAR: 2019
EXTT0=
EXTT1=
EXTT2=
EXTT3=
EXTT4=
EXTT5=
PLAYORDER=
